G04 EAGLE Gerber RS-274X export*
G75*
%MOMM*%
%FSLAX34Y34*%
%LPD*%
%IN*%
%IPPOS*%
%AMOC8*
5,1,8,0,0,1.08239X$1,22.5*%
G01*
%ADD10C,0.254000*%


D10*
X0Y-25400D02*
X1536500Y-25400D01*
X1536500Y568200D01*
X0Y568200D01*
X0Y-25400D01*
X1514475Y520180D02*
X1514407Y519143D01*
X1514271Y518113D01*
X1514069Y517093D01*
X1513800Y516089D01*
X1513465Y515105D01*
X1513068Y514145D01*
X1512608Y513213D01*
X1512088Y512312D01*
X1511511Y511448D01*
X1510878Y510624D01*
X1510193Y509842D01*
X1509458Y509107D01*
X1508676Y508422D01*
X1507852Y507789D01*
X1506988Y507212D01*
X1506087Y506692D01*
X1505155Y506232D01*
X1504195Y505835D01*
X1503211Y505500D01*
X1502207Y505231D01*
X1501187Y505029D01*
X1500157Y504893D01*
X1499120Y504825D01*
X1498080Y504825D01*
X1497043Y504893D01*
X1496013Y505029D01*
X1494993Y505231D01*
X1493989Y505500D01*
X1493005Y505835D01*
X1492045Y506232D01*
X1491113Y506692D01*
X1490212Y507212D01*
X1489348Y507789D01*
X1488524Y508422D01*
X1487742Y509107D01*
X1487007Y509842D01*
X1486322Y510624D01*
X1485689Y511448D01*
X1485112Y512312D01*
X1484592Y513213D01*
X1484132Y514145D01*
X1483735Y515105D01*
X1483400Y516089D01*
X1483131Y517093D01*
X1482929Y518113D01*
X1482793Y519143D01*
X1482725Y520180D01*
X1482725Y521220D01*
X1482793Y522257D01*
X1482929Y523287D01*
X1483131Y524307D01*
X1483400Y525311D01*
X1483735Y526295D01*
X1484132Y527255D01*
X1484592Y528187D01*
X1485112Y529088D01*
X1485689Y529952D01*
X1486322Y530776D01*
X1487007Y531558D01*
X1487742Y532293D01*
X1488524Y532978D01*
X1489348Y533611D01*
X1490212Y534188D01*
X1491113Y534708D01*
X1492045Y535168D01*
X1493005Y535565D01*
X1493989Y535900D01*
X1494993Y536169D01*
X1496013Y536371D01*
X1497043Y536507D01*
X1498080Y536575D01*
X1499120Y536575D01*
X1500157Y536507D01*
X1501187Y536371D01*
X1502207Y536169D01*
X1503211Y535900D01*
X1504195Y535565D01*
X1505155Y535168D01*
X1506087Y534708D01*
X1506988Y534188D01*
X1507852Y533611D01*
X1508676Y532978D01*
X1509458Y532293D01*
X1510193Y531558D01*
X1510878Y530776D01*
X1511511Y529952D01*
X1512088Y529088D01*
X1512608Y528187D01*
X1513068Y527255D01*
X1513465Y526295D01*
X1513800Y525311D01*
X1514069Y524307D01*
X1514271Y523287D01*
X1514407Y522257D01*
X1514475Y521220D01*
X1514475Y520180D01*
X1514475Y24880D02*
X1514407Y23843D01*
X1514271Y22813D01*
X1514069Y21793D01*
X1513800Y20789D01*
X1513465Y19805D01*
X1513068Y18845D01*
X1512608Y17913D01*
X1512088Y17012D01*
X1511511Y16148D01*
X1510878Y15324D01*
X1510193Y14542D01*
X1509458Y13807D01*
X1508676Y13122D01*
X1507852Y12489D01*
X1506988Y11912D01*
X1506087Y11392D01*
X1505155Y10932D01*
X1504195Y10535D01*
X1503211Y10200D01*
X1502207Y9931D01*
X1501187Y9729D01*
X1500157Y9593D01*
X1499120Y9525D01*
X1498080Y9525D01*
X1497043Y9593D01*
X1496013Y9729D01*
X1494993Y9931D01*
X1493989Y10200D01*
X1493005Y10535D01*
X1492045Y10932D01*
X1491113Y11392D01*
X1490212Y11912D01*
X1489348Y12489D01*
X1488524Y13122D01*
X1487742Y13807D01*
X1487007Y14542D01*
X1486322Y15324D01*
X1485689Y16148D01*
X1485112Y17012D01*
X1484592Y17913D01*
X1484132Y18845D01*
X1483735Y19805D01*
X1483400Y20789D01*
X1483131Y21793D01*
X1482929Y22813D01*
X1482793Y23843D01*
X1482725Y24880D01*
X1482725Y25920D01*
X1482793Y26957D01*
X1482929Y27987D01*
X1483131Y29007D01*
X1483400Y30011D01*
X1483735Y30995D01*
X1484132Y31955D01*
X1484592Y32887D01*
X1485112Y33788D01*
X1485689Y34652D01*
X1486322Y35476D01*
X1487007Y36258D01*
X1487742Y36993D01*
X1488524Y37678D01*
X1489348Y38311D01*
X1490212Y38888D01*
X1491113Y39408D01*
X1492045Y39868D01*
X1493005Y40265D01*
X1493989Y40600D01*
X1494993Y40869D01*
X1496013Y41071D01*
X1497043Y41207D01*
X1498080Y41275D01*
X1499120Y41275D01*
X1500157Y41207D01*
X1501187Y41071D01*
X1502207Y40869D01*
X1503211Y40600D01*
X1504195Y40265D01*
X1505155Y39868D01*
X1506087Y39408D01*
X1506988Y38888D01*
X1507852Y38311D01*
X1508676Y37678D01*
X1509458Y36993D01*
X1510193Y36258D01*
X1510878Y35476D01*
X1511511Y34652D01*
X1512088Y33788D01*
X1512608Y32887D01*
X1513068Y31955D01*
X1513465Y30995D01*
X1513800Y30011D01*
X1514069Y29007D01*
X1514271Y27987D01*
X1514407Y26957D01*
X1514475Y25920D01*
X1514475Y24880D01*
X56155Y526955D02*
X56087Y525918D01*
X55951Y524887D01*
X55749Y523868D01*
X55480Y522864D01*
X55146Y521880D01*
X54748Y520919D01*
X54288Y519987D01*
X53768Y519087D01*
X53191Y518223D01*
X52558Y517398D01*
X51873Y516617D01*
X51138Y515882D01*
X50357Y515197D01*
X49532Y514564D01*
X48668Y513986D01*
X47768Y513467D01*
X46835Y513007D01*
X45875Y512609D01*
X44891Y512275D01*
X43887Y512006D01*
X42867Y511803D01*
X41837Y511668D01*
X40800Y511600D01*
X39760Y511600D01*
X38723Y511668D01*
X37693Y511803D01*
X36673Y512006D01*
X35669Y512275D01*
X34685Y512609D01*
X33725Y513007D01*
X32793Y513467D01*
X31893Y513986D01*
X31028Y514564D01*
X30204Y515197D01*
X29422Y515882D01*
X28687Y516617D01*
X28002Y517398D01*
X27369Y518223D01*
X26792Y519087D01*
X26272Y519987D01*
X25812Y520919D01*
X25415Y521880D01*
X25081Y522864D01*
X24812Y523868D01*
X24609Y524887D01*
X24473Y525918D01*
X24405Y526955D01*
X24405Y527994D01*
X24473Y529031D01*
X24609Y530062D01*
X24812Y531081D01*
X25081Y532085D01*
X25415Y533070D01*
X25812Y534030D01*
X26272Y534962D01*
X26792Y535862D01*
X27369Y536726D01*
X28002Y537551D01*
X28687Y538332D01*
X29422Y539067D01*
X30204Y539753D01*
X31028Y540385D01*
X31893Y540963D01*
X32793Y541483D01*
X33725Y541942D01*
X34685Y542340D01*
X35669Y542674D01*
X36673Y542943D01*
X37693Y543146D01*
X38723Y543282D01*
X39760Y543350D01*
X40800Y543350D01*
X41837Y543282D01*
X42867Y543146D01*
X43887Y542943D01*
X44891Y542674D01*
X45875Y542340D01*
X46835Y541942D01*
X47768Y541483D01*
X48668Y540963D01*
X49532Y540385D01*
X50357Y539753D01*
X51138Y539067D01*
X51873Y538332D01*
X52558Y537551D01*
X53191Y536726D01*
X53768Y535862D01*
X54288Y534962D01*
X54748Y534030D01*
X55146Y533070D01*
X55480Y532085D01*
X55749Y531081D01*
X55951Y530062D01*
X56087Y529031D01*
X56155Y527994D01*
X56155Y526955D01*
X59912Y18106D02*
X59844Y17069D01*
X59709Y16038D01*
X59506Y15019D01*
X59237Y14015D01*
X58903Y13030D01*
X58505Y12070D01*
X58045Y11138D01*
X57526Y10238D01*
X56948Y9374D01*
X56315Y8549D01*
X55630Y7768D01*
X54895Y7033D01*
X54114Y6347D01*
X53289Y5715D01*
X52425Y5137D01*
X51525Y4617D01*
X50592Y4158D01*
X49632Y3760D01*
X48648Y3426D01*
X47644Y3157D01*
X46625Y2954D01*
X45594Y2818D01*
X44557Y2750D01*
X43518Y2750D01*
X42480Y2818D01*
X41450Y2954D01*
X40430Y3157D01*
X39426Y3426D01*
X38442Y3760D01*
X37482Y4158D01*
X36550Y4617D01*
X35650Y5137D01*
X34785Y5715D01*
X33961Y6347D01*
X33179Y7033D01*
X32444Y7768D01*
X31759Y8549D01*
X31126Y9374D01*
X30549Y10238D01*
X30029Y11138D01*
X29570Y12070D01*
X29172Y13030D01*
X28838Y14015D01*
X28569Y15019D01*
X28366Y16038D01*
X28230Y17069D01*
X28162Y18106D01*
X28162Y19145D01*
X28230Y20182D01*
X28366Y21213D01*
X28569Y22232D01*
X28838Y23236D01*
X29172Y24220D01*
X29570Y25181D01*
X30029Y26113D01*
X30549Y27013D01*
X31126Y27877D01*
X31759Y28702D01*
X32444Y29483D01*
X33179Y30218D01*
X33961Y30904D01*
X34785Y31536D01*
X35650Y32114D01*
X36550Y32633D01*
X37482Y33093D01*
X38442Y33491D01*
X39426Y33825D01*
X40430Y34094D01*
X41450Y34297D01*
X42480Y34432D01*
X43518Y34500D01*
X44557Y34500D01*
X45594Y34432D01*
X46625Y34297D01*
X47644Y34094D01*
X48648Y33825D01*
X49632Y33491D01*
X50592Y33093D01*
X51525Y32633D01*
X52425Y32114D01*
X53289Y31536D01*
X54114Y30904D01*
X54895Y30218D01*
X55630Y29483D01*
X56315Y28702D01*
X56948Y27877D01*
X57526Y27013D01*
X58045Y26113D01*
X58505Y25181D01*
X58903Y24220D01*
X59237Y23236D01*
X59506Y22232D01*
X59709Y21213D01*
X59844Y20182D01*
X59912Y19145D01*
X59912Y18106D01*
M02*
