G04 EAGLE Gerber RS-274X export*
G75*
%MOMM*%
%FSLAX34Y34*%
%LPD*%
%INSilkscreen Bottom*%
%IPPOS*%
%AMOC8*
5,1,8,0,0,1.08239X$1,22.5*%
G01*
%ADD10C,0.508000*%


D10*
X1459230Y63500D02*
X1459228Y63622D01*
X1459222Y63744D01*
X1459212Y63866D01*
X1459199Y63987D01*
X1459181Y64108D01*
X1459160Y64228D01*
X1459134Y64348D01*
X1459105Y64466D01*
X1459073Y64584D01*
X1459036Y64701D01*
X1458996Y64816D01*
X1458952Y64930D01*
X1458904Y65042D01*
X1458853Y65153D01*
X1458798Y65262D01*
X1458740Y65370D01*
X1458678Y65475D01*
X1458613Y65578D01*
X1458545Y65680D01*
X1458473Y65779D01*
X1458399Y65875D01*
X1458321Y65970D01*
X1458240Y66061D01*
X1458157Y66151D01*
X1458071Y66237D01*
X1457981Y66320D01*
X1457890Y66401D01*
X1457795Y66479D01*
X1457699Y66553D01*
X1457600Y66625D01*
X1457498Y66693D01*
X1457395Y66758D01*
X1457290Y66820D01*
X1457182Y66878D01*
X1457073Y66933D01*
X1456962Y66984D01*
X1456850Y67032D01*
X1456736Y67076D01*
X1456621Y67116D01*
X1456504Y67153D01*
X1456386Y67185D01*
X1456268Y67214D01*
X1456148Y67240D01*
X1456028Y67261D01*
X1455907Y67279D01*
X1455786Y67292D01*
X1455664Y67302D01*
X1455542Y67308D01*
X1455420Y67310D01*
X1455298Y67308D01*
X1455176Y67302D01*
X1455054Y67292D01*
X1454933Y67279D01*
X1454812Y67261D01*
X1454692Y67240D01*
X1454572Y67214D01*
X1454454Y67185D01*
X1454336Y67153D01*
X1454219Y67116D01*
X1454104Y67076D01*
X1453990Y67032D01*
X1453878Y66984D01*
X1453767Y66933D01*
X1453658Y66878D01*
X1453550Y66820D01*
X1453445Y66758D01*
X1453342Y66693D01*
X1453240Y66625D01*
X1453141Y66553D01*
X1453045Y66479D01*
X1452950Y66401D01*
X1452859Y66320D01*
X1452769Y66237D01*
X1452683Y66151D01*
X1452600Y66061D01*
X1452519Y65970D01*
X1452441Y65875D01*
X1452367Y65779D01*
X1452295Y65680D01*
X1452227Y65578D01*
X1452162Y65475D01*
X1452100Y65370D01*
X1452042Y65262D01*
X1451987Y65153D01*
X1451936Y65042D01*
X1451888Y64930D01*
X1451844Y64816D01*
X1451804Y64701D01*
X1451767Y64584D01*
X1451735Y64466D01*
X1451706Y64348D01*
X1451680Y64228D01*
X1451659Y64108D01*
X1451641Y63987D01*
X1451628Y63866D01*
X1451618Y63744D01*
X1451612Y63622D01*
X1451610Y63500D01*
X1451612Y63378D01*
X1451618Y63256D01*
X1451628Y63134D01*
X1451641Y63013D01*
X1451659Y62892D01*
X1451680Y62772D01*
X1451706Y62652D01*
X1451735Y62534D01*
X1451767Y62416D01*
X1451804Y62299D01*
X1451844Y62184D01*
X1451888Y62070D01*
X1451936Y61958D01*
X1451987Y61847D01*
X1452042Y61738D01*
X1452100Y61630D01*
X1452162Y61525D01*
X1452227Y61422D01*
X1452295Y61320D01*
X1452367Y61221D01*
X1452441Y61125D01*
X1452519Y61030D01*
X1452600Y60939D01*
X1452683Y60849D01*
X1452769Y60763D01*
X1452859Y60680D01*
X1452950Y60599D01*
X1453045Y60521D01*
X1453141Y60447D01*
X1453240Y60375D01*
X1453342Y60307D01*
X1453445Y60242D01*
X1453550Y60180D01*
X1453658Y60122D01*
X1453767Y60067D01*
X1453878Y60016D01*
X1453990Y59968D01*
X1454104Y59924D01*
X1454219Y59884D01*
X1454336Y59847D01*
X1454454Y59815D01*
X1454572Y59786D01*
X1454692Y59760D01*
X1454812Y59739D01*
X1454933Y59721D01*
X1455054Y59708D01*
X1455176Y59698D01*
X1455298Y59692D01*
X1455420Y59690D01*
X1455542Y59692D01*
X1455664Y59698D01*
X1455786Y59708D01*
X1455907Y59721D01*
X1456028Y59739D01*
X1456148Y59760D01*
X1456268Y59786D01*
X1456386Y59815D01*
X1456504Y59847D01*
X1456621Y59884D01*
X1456736Y59924D01*
X1456850Y59968D01*
X1456962Y60016D01*
X1457073Y60067D01*
X1457182Y60122D01*
X1457290Y60180D01*
X1457395Y60242D01*
X1457498Y60307D01*
X1457600Y60375D01*
X1457699Y60447D01*
X1457795Y60521D01*
X1457890Y60599D01*
X1457981Y60680D01*
X1458071Y60763D01*
X1458157Y60849D01*
X1458240Y60939D01*
X1458321Y61030D01*
X1458399Y61125D01*
X1458473Y61221D01*
X1458545Y61320D01*
X1458613Y61422D01*
X1458678Y61525D01*
X1458740Y61630D01*
X1458798Y61738D01*
X1458853Y61847D01*
X1458904Y61958D01*
X1458952Y62070D01*
X1458996Y62184D01*
X1459036Y62299D01*
X1459073Y62416D01*
X1459105Y62534D01*
X1459134Y62652D01*
X1459160Y62772D01*
X1459181Y62892D01*
X1459199Y63013D01*
X1459212Y63134D01*
X1459222Y63256D01*
X1459228Y63378D01*
X1459230Y63500D01*
M02*
