G04 EAGLE Gerber RS-274X export*
G75*
%MOMM*%
%FSLAX34Y34*%
%LPD*%
%INSoldermask Top*%
%IPPOS*%
%AMOC8*
5,1,8,0,0,1.08239X$1,22.5*%
G01*
%ADD10C,3.378200*%
%ADD11C,2.451100*%
%ADD12C,2.743200*%
%ADD13P,2.969212X8X292.500000*%
%ADD14P,1.649562X8X22.500000*%
%ADD15P,1.649562X8X292.500000*%
%ADD16P,2.969212X8X22.500000*%
%ADD17P,1.869504X8X112.500000*%
%ADD18P,1.649562X8X112.500000*%
%ADD19P,1.759533X8X22.500000*%
%ADD20P,1.951982X8X22.500000*%
%ADD21C,1.803400*%
%ADD22P,1.951982X8X292.500000*%
%ADD23C,1.727200*%
%ADD24C,1.320800*%
%ADD25P,1.869504X8X202.500000*%
%ADD26C,2.743200*%
%ADD27R,6.045200X6.045200*%
%ADD28C,1.524000*%
%ADD29C,2.303200*%
%ADD30C,4.775200*%
%ADD31C,1.511200*%
%ADD32C,2.870200*%
%ADD33P,1.869504X8X22.500000*%
%ADD34C,1.981200*%
%ADD35C,2.133600*%
%ADD36C,2.108200*%
%ADD37P,1.649562X8X202.500000*%
%ADD38P,2.005885X8X22.500000*%
%ADD39C,2.032000*%
%ADD40C,2.006600*%
%ADD41P,1.869504X8X292.500000*%
%ADD42C,3.759200*%
%ADD43C,0.959600*%


D10*
X1498600Y520700D03*
X1498600Y25400D03*
X40280Y527475D03*
X44037Y18625D03*
D11*
X1296861Y241300D02*
X1319340Y241300D01*
X1449261Y241300D02*
X1471740Y241300D01*
D12*
X177800Y127000D03*
D13*
X177800Y76200D03*
D14*
X1206500Y406400D03*
X1231900Y406400D03*
X1206500Y431800D03*
X1231900Y431800D03*
X850900Y482600D03*
X876300Y482600D03*
X850900Y431800D03*
X876300Y431800D03*
D15*
X838200Y292100D03*
X838200Y266700D03*
D12*
X736600Y139700D03*
D16*
X787400Y139700D03*
D12*
X673100Y228600D03*
D13*
X673100Y177800D03*
D17*
X317500Y279400D03*
X317500Y381000D03*
D12*
X152400Y533400D03*
D13*
X152400Y482600D03*
D18*
X863600Y266700D03*
X863600Y292100D03*
D19*
X393700Y393700D03*
X469900Y393700D03*
D20*
X508000Y444500D03*
D21*
X482600Y444500D03*
D22*
X571500Y464820D03*
D21*
X571500Y500380D03*
D23*
X652780Y419100D02*
X668020Y419100D01*
X668020Y444500D02*
X652780Y444500D01*
D24*
X914400Y284988D02*
X914400Y273812D01*
X965200Y273812D02*
X965200Y284988D01*
D25*
X482600Y203200D03*
X381000Y203200D03*
D14*
X749300Y215900D03*
X825500Y215900D03*
D15*
X635000Y533400D03*
X635000Y457200D03*
D26*
X1219200Y252222D02*
X1244600Y252222D01*
X1244600Y27178D02*
X1219200Y27178D01*
X252222Y304800D02*
X252222Y330200D01*
X27178Y330200D02*
X27178Y304800D01*
D14*
X736346Y495300D03*
X686054Y495300D03*
X711200Y469900D03*
D27*
X63500Y419100D03*
X63500Y152400D03*
D28*
X685800Y310896D02*
X685800Y324104D01*
X711200Y324104D02*
X711200Y310896D01*
X736600Y310896D02*
X736600Y324104D01*
X762000Y324104D02*
X762000Y310896D01*
X787400Y310896D02*
X787400Y324104D01*
X812800Y324104D02*
X812800Y310896D01*
X838200Y310896D02*
X838200Y324104D01*
X863600Y324104D02*
X863600Y310896D01*
X889000Y310896D02*
X889000Y324104D01*
X914400Y324104D02*
X914400Y310896D01*
X939800Y310896D02*
X939800Y324104D01*
X965200Y324104D02*
X965200Y310896D01*
X990600Y310896D02*
X990600Y324104D01*
X1016000Y324104D02*
X1016000Y310896D01*
X1016000Y387096D02*
X1016000Y400304D01*
X990600Y400304D02*
X990600Y387096D01*
X965200Y387096D02*
X965200Y400304D01*
X939800Y400304D02*
X939800Y387096D01*
X914400Y387096D02*
X914400Y400304D01*
X889000Y400304D02*
X889000Y387096D01*
X863600Y387096D02*
X863600Y400304D01*
X838200Y400304D02*
X838200Y387096D01*
X812800Y387096D02*
X812800Y400304D01*
X787400Y400304D02*
X787400Y387096D01*
X762000Y387096D02*
X762000Y400304D01*
X736600Y400304D02*
X736600Y387096D01*
X711200Y387096D02*
X711200Y400304D01*
X685800Y400304D02*
X685800Y387096D01*
D29*
X1435100Y393700D03*
X1272800Y393700D03*
X1435100Y457200D03*
X1272800Y457200D03*
X1435100Y520700D03*
X1272800Y520700D03*
D30*
X876300Y68580D03*
X1130300Y68580D03*
D31*
X329692Y190500D03*
X279908Y190500D03*
X165608Y419100D03*
X215392Y419100D03*
D14*
X533400Y533400D03*
X558800Y533400D03*
D32*
X1409700Y63500D03*
X1346200Y63500D03*
X1454150Y63500D03*
D33*
X914400Y495300D03*
X914400Y520700D03*
X939800Y495300D03*
X939800Y520700D03*
X965200Y495300D03*
X965200Y520700D03*
D34*
X276762Y21055D03*
D35*
X327562Y21055D03*
D36*
X378362Y21055D03*
X429162Y21055D03*
D35*
X606962Y21055D03*
D36*
X657762Y21055D03*
D23*
X1028700Y93980D02*
X1028700Y109220D01*
X1003300Y109220D02*
X1003300Y93980D01*
X977900Y93980D02*
X977900Y109220D01*
D14*
X127000Y190500D03*
X203200Y190500D03*
X1041400Y444500D03*
X1117600Y444500D03*
D37*
X1244600Y381000D03*
X1168400Y381000D03*
D38*
X-304800Y-310203D03*
X0Y-310203D03*
D18*
X1054100Y317500D03*
X1054100Y393700D03*
D37*
X1018795Y215376D03*
X942595Y215376D03*
X1242868Y457153D03*
X1166668Y457153D03*
D14*
X812546Y495300D03*
X762254Y495300D03*
X787400Y469900D03*
D39*
X281052Y528187D03*
X300864Y528187D03*
D40*
X299848Y528187D02*
X282068Y528187D01*
X259550Y528187D02*
X241770Y528187D01*
D39*
X240860Y528479D03*
X260672Y528479D03*
X321396Y527915D03*
X341208Y527915D03*
X361006Y528354D03*
X380818Y528354D03*
X440880Y528250D03*
X460692Y528250D03*
X481453Y528250D03*
X501040Y528476D03*
D40*
X339922Y527864D02*
X322142Y527864D01*
X362403Y528515D02*
X380183Y528515D01*
X441951Y527864D02*
X459731Y527864D01*
X482536Y528189D02*
X500316Y528189D01*
D23*
X977900Y45720D02*
X977900Y30480D01*
X1003300Y30480D02*
X1003300Y45720D01*
X1028700Y45720D02*
X1028700Y30480D01*
D41*
X1167786Y326624D03*
X1193186Y326624D03*
X1167786Y301224D03*
X1193186Y301224D03*
D14*
X8890Y-52566D03*
X34290Y-52566D03*
X8890Y-96254D03*
X34290Y-96254D03*
X7620Y-145062D03*
X83820Y-145062D03*
X7620Y-183203D03*
X83820Y-183203D03*
D31*
X1136745Y249605D03*
X1111345Y249605D03*
X1111345Y173405D03*
X1136745Y173405D03*
D42*
X-148331Y-376261D03*
X-148331Y-538821D03*
D43*
X1041400Y342900D03*
M02*
