M48
;GenerationSoftware,Autodesk,EAGLE,9.6.2*%
;CreationDate,2021-07-17T05:39:12Z*%
FMAT,2
ICI,OFF
METRIC,TZ,000.000
T17C0.350
T16C0.610
T15C0.800
T14C0.813
T13C0.914
T12C1.016
T11C1.067
T10C1.100
T9C1.219
T8C1.321
T7C1.400
T6C1.499
T5C1.778
T4C2.032
T3C3.000
T2C3.048
T1C3.175
%
G90
M71
T1
X149860Y52070
X149860Y2540
X4028Y52747
X4404Y1863
T2
X87630Y6858
X113030Y6858
T3
X6350Y41910
X6350Y15240
T4
X-14833Y-53882
X-14833Y-37626
T5
X145415Y6350
X140970Y6350
X134620Y6350
T6
X130810Y24130
X146050Y24130
T7
X143510Y52070
X143510Y39370
X143510Y45720
X127280Y45720
X127280Y52070
X127280Y39370
T8
X2718Y31750
X123190Y25222
X123190Y2718
X25222Y31750
T9
X26067Y52848
X32140Y52791
X34121Y52791
X36101Y52835
X38082Y52835
X44088Y52825
X28105Y52819
X46069Y52825
X48145Y52825
X30086Y52819
X24086Y52848
X50104Y52848
T10
X0Y-31020
X-30480Y-31020
T11
X65776Y2105
X60696Y2105
X42916Y2105
X37836Y2105
X32756Y2105
X27676Y2105
T12
X78740Y13970
X17780Y12700
X17780Y7620
X66040Y44450
X102870Y3810
X116779Y32662
X48260Y20320
X119319Y32662
X116779Y30122
X119319Y30122
X93980Y52070
X91440Y49530
X91440Y52070
X73660Y13970
X38100Y20320
X67310Y22860
X67310Y17780
X31750Y27940
X31750Y38100
X15240Y53340
X15240Y48260
X93980Y49530
X96520Y49530
X96520Y52070
X102870Y10160
X100330Y10160
X97790Y10160
X97790Y3810
X100330Y3810
X66040Y41910
T13
X39370Y39370
X46990Y39370
T14
X120650Y40640
X123190Y40640
X120650Y43180
X123190Y43180
X85090Y48260
X87630Y48260
X85090Y43180
X87630Y43180
X83820Y29210
X83820Y26670
X86360Y26670
X86360Y29210
X50800Y44450
X48260Y44450
X57150Y46482
X57150Y50038
X762Y-18320
X8382Y-18320
X63500Y53340
X74930Y21590
X82550Y21590
X91440Y39370
X68580Y39370
X71120Y39370
X73660Y39370
X88900Y31750
X76200Y39370
X78740Y39370
X93980Y39370
X96520Y39370
X99060Y39370
X101600Y39370
X101600Y31750
X99060Y31750
X81280Y39370
X83820Y39370
X105410Y39370
X12700Y19050
X20320Y19050
X104140Y44450
X111760Y44450
X124460Y38100
X116840Y38100
X96520Y31750
X93980Y31750
X105410Y31750
X91440Y31750
X101879Y21538
X94259Y21538
X124287Y45715
X116667Y45715
X81255Y49530
X76225Y49530
X78740Y46990
X86360Y31750
X83820Y31750
X81280Y31750
X78740Y31750
X76200Y31750
X73660Y31750
X71120Y31750
X68580Y31750
X71120Y46990
X68605Y49530
X73635Y49530
X63500Y45720
X53340Y53340
X55880Y53340
X86360Y39370
X88900Y39370
X889Y-5257
X3429Y-5257
X889Y-9625
X3429Y-9625
X762Y-14506
X8382Y-14506
T15
X32969Y19050
X21539Y41910
X113675Y24961
X111135Y24961
X111135Y17341
X113675Y17341
X27991Y19050
X16561Y41910
T16
X91440Y27940
X96520Y27940
T17
X104140Y34290
M30